<?xml version="1.0" standalone="no"?>
<!DOCTYPE svg PUBLIC "-//W3C//DTD SVG 20010904//EN"
 "http://www.w3.org/TR/2001/REC-SVG-20010904/DTD/svg10.dtd">
<svg version="1.0" xmlns="http://www.w3.org/2000/svg"
 width="1200.000000pt" height="1200.000000pt" viewBox="0 0 1200.000000 1200.000000"
 preserveAspectRatio="xMidYMid meet">
<metadata>
Created by potrace 1.14, written by Peter Selinger 2001-2017
</metadata>
<g transform="translate(0.000000,1200.000000) scale(0.100000,-0.100000)"
fill="#000000" stroke="none">
<path d="M5600 11983 c-296 -18 -771 -96 -1110 -183 -618 -157 -1254 -445
-1820 -823 -875 -584 -1603 -1418 -2054 -2352 -169 -352 -302 -698 -385 -1005
-18 -63 -36 -128 -41 -145 -9 -29 -33 -136 -63 -285 -32 -157 -57 -309 -72
-435 -9 -71 -21 -173 -27 -225 -16 -128 -16 -932 0 -1060 6 -52 18 -153 27
-225 9 -71 20 -152 25 -180 4 -27 15 -90 24 -140 23 -133 66 -323 109 -480 50
-183 59 -213 104 -344 107 -316 279 -707 440 -996 401 -721 930 -1338 1578
-1841 90 -70 332 -243 392 -279 18 -11 76 -48 130 -81 391 -245 844 -456 1295
-605 92 -30 112 -36 328 -94 241 -65 519 -119 775 -150 72 -9 173 -21 225 -27
127 -16 912 -16 1040 0 52 6 171 20 264 32 94 11 186 24 205 29 20 5 70 15
111 21 83 13 125 22 345 75 164 40 193 48 430 125 875 284 1714 805 2379 1475
667 673 1196 1546 1460 2410 15 50 34 113 43 140 40 129 111 436 138 592 9 51
18 99 20 105 9 26 56 426 66 572 13 166 5 835 -10 946 -5 36 -16 126 -25 200
-16 133 -26 192 -66 400 -76 395 -221 874 -360 1185 -10 22 -32 74 -50 115
-89 207 -301 590 -458 830 -579 882 -1350 1576 -2272 2047 -132 67 -463 223
-474 223 -5 0 -22 6 -39 14 -132 60 -497 180 -717 236 -359 92 -720 152 -1080
180 -114 9 -699 11 -830 3z m1015 -647 c504 -62 987 -185 1395 -356 41 -17 98
-40 126 -51 28 -10 131 -59 230 -108 353 -174 607 -334 959 -605 249 -191 589
-523 826 -806 170 -202 386 -519 541 -795 77 -136 210 -407 243 -495 8 -19 28
-69 45 -110 41 -97 125 -331 157 -440 152 -508 221 -951 230 -1475 10 -580
-58 -1080 -225 -1645 -44 -146 -130 -388 -177 -495 -142 -322 -205 -450 -345
-690 -92 -160 -307 -474 -397 -581 -10 -11 -29 -36 -43 -54 -146 -197 -585
-636 -804 -805 -22 -16 -62 -48 -90 -70 -48 -39 -157 -117 -271 -197 -466
-324 -1117 -617 -1680 -756 -366 -91 -549 -120 -972 -156 -510 -44 -1148 14
-1698 155 -211 54 -536 162 -715 239 -25 10 -79 33 -120 51 -100 42 -305 144
-432 215 -1169 649 -2058 1714 -2481 2974 -139 411 -202 702 -254 1160 -36
325 -39 770 -5 1085 49 466 156 942 294 1305 37 98 79 204 88 225 114 261 255
550 302 617 10 14 18 29 18 32 0 4 12 25 27 49 15 23 42 67 61 97 234 368 446
635 752 941 206 207 359 341 560 493 401 302 825 539 1292 722 48 19 90 34 94
34 3 0 20 6 37 14 18 8 84 31 147 51 63 20 129 41 145 47 46 15 208 57 325 84
243 55 471 89 855 128 22 2 200 2 395 1 308 -3 383 -7 565 -29z"/>
<path d="M6010 9254 c-14 -2 -65 -11 -115 -20 -131 -23 -318 -87 -448 -153
-205 -105 -348 -213 -527 -397 -189 -195 -331 -399 -461 -663 -78 -156 -94
-229 -70 -304 58 -175 281 -227 408 -95 17 18 67 103 110 189 96 189 181 319
301 459 235 273 518 439 823 484 132 20 174 20 297 1 222 -34 394 -108 587
-255 171 -129 378 -370 472 -548 55 -102 109 -261 123 -358 7 -54 10 -344 8
-928 l-3 -849 -57 -46 c-32 -25 -258 -209 -503 -409 l-445 -364 -73 55 c-39
30 -274 213 -522 406 -247 193 -472 362 -499 376 -102 51 -222 25 -319 -69
-82 -80 -77 12 -77 -1331 0 -1311 -2 -1257 61 -1329 128 -146 370 -95 424 88
13 42 15 191 15 988 0 516 3 938 6 938 8 0 64 -43 460 -350 400 -310 485 -354
615 -317 45 14 89 45 259 184 525 428 647 525 657 524 4 -1 8 -452 8 -1004 0
-955 1 -1004 19 -1045 24 -56 103 -126 161 -142 91 -25 196 6 254 77 63 76 60
15 66 1266 3 628 2 1633 -3 2232 -9 1068 -10 1092 -31 1190 -60 272 -148 456
-349 724 -305 408 -706 678 -1147 771 -75 16 -145 22 -280 25 -99 2 -191 2
-205 -1z"/>
<path d="M8249 8043 c-8 -27 -14 -82 -14 -123 0 -61 5 -83 24 -117 39 -68 76
-80 267 -86 94 -2 169 -9 182 -16 18 -10 22 -20 22 -62 l0 -50 73 3 72 3 3
108 c1 59 5 107 8 107 3 0 21 -7 40 -16 24 -11 41 -32 60 -70 24 -49 26 -62
22 -142 -5 -102 -25 -151 -76 -190 l-35 -27 -324 -3 -324 -3 3 -122 3 -122
320 0 c282 0 326 2 371 18 161 56 249 191 261 403 12 203 -48 358 -172 440
-65 43 -138 64 -231 64 l-71 0 -6 -66 c-4 -37 -9 -69 -12 -72 -3 -3 -13 2 -23
11 -32 29 -102 47 -182 47 -88 0 -103 10 -98 62 3 32 2 33 -57 49 -89 26 -91
25 -106 -28z"/>
<path d="M4075 7103 c-195 -131 -355 -242 -355 -247 0 -10 197 -293 209 -301
5 -2 94 54 200 126 l191 130 0 -505 c0 -279 -2 -506 -4 -506 -2 0 -37 16 -77
35 -99 46 -225 81 -345 95 -84 11 -116 10 -214 -4 -200 -30 -350 -91 -497
-203 -166 -126 -269 -271 -348 -489 -50 -139 -56 -215 -45 -584 5 -173 10
-566 10 -872 0 -362 4 -575 11 -608 15 -68 64 -138 123 -175 43 -26 59 -30
120 -30 107 1 174 43 227 145 l24 45 2 429 c2 236 4 431 6 433 2 2 37 -12 78
-31 136 -62 232 -81 414 -80 140 1 172 4 260 27 388 104 671 421 746 837 11
61 14 312 14 1320 l0 1245 -197 3 -197 2 -356 -237z m-115 -1689 c160 -45 311
-207 349 -374 16 -68 13 -199 -5 -261 -95 -323 -449 -473 -748 -316 -83 43
-175 138 -217 223 l-34 69 0 165 c0 160 1 167 28 222 74 152 221 262 382 288
64 11 175 3 245 -16z"/>
<path d="M8252 6778 l3 -123 118 -5 119 -5 33 -37 c38 -41 55 -91 55 -165 0
-83 0 -83 101 -83 l89 0 0 58 c0 77 -21 145 -60 193 l-31 39 98 0 c83 0 106
-4 143 -22 63 -32 90 -88 90 -183 0 -94 -27 -150 -89 -182 -43 -23 -50 -23
-358 -23 l-313 0 0 -125 0 -125 278 0 c405 1 477 15 567 111 55 59 88 129 104
220 35 205 -18 409 -131 498 -89 71 -109 75 -486 79 l-333 3 3 -123z"/>
<path d="M8251 5788 c-30 -100 -22 -216 18 -265 41 -49 80 -63 181 -64 143 -1
261 -14 271 -30 5 -8 9 -33 9 -57 l0 -43 73 3 72 3 3 108 c1 59 6 107 11 107
4 0 23 -10 41 -23 54 -35 73 -79 78 -172 6 -104 -14 -171 -64 -215 -19 -16
-36 -31 -37 -32 -1 -1 -148 -4 -327 -8 l-325 -5 -3 -122 -3 -123 294 0 c169 0
318 5 352 11 119 22 210 90 259 193 88 185 70 445 -40 592 -59 79 -190 134
-321 134 -63 0 -63 0 -63 -29 0 -15 -3 -49 -6 -74 l-7 -46 -31 23 c-42 32 -97
46 -182 46 -81 0 -97 11 -92 61 3 31 2 32 -62 50 -36 11 -70 19 -76 19 -6 0
-16 -19 -23 -42z"/>
<path d="M9175 4672 c-28 -21 -61 -45 -74 -54 l-24 -17 61 -93 62 -93 -453 -6
c-248 -3 -462 -7 -474 -8 -23 -1 -23 -3 -23 -131 l0 -130 618 2 617 3 3 99 3
100 -123 183 c-67 101 -127 183 -132 182 -6 0 -34 -17 -61 -37z"/>
<path d="M8416 3895 c-142 -54 -211 -218 -175 -420 16 -91 14 -90 100 -71 40
10 76 19 79 21 4 2 2 30 -3 62 -17 109 19 175 97 175 88 0 117 -60 124 -249
l5 -133 -29 -1 c-16 -1 -33 -2 -39 -4 -5 -1 -81 -3 -167 -3 l-158 -2 0 -120 0
-121 358 3 c346 3 358 4 398 25 l42 22 6 -31 c3 -17 6 -59 6 -94 l0 -64 90 0
90 0 0 55 c0 66 -31 155 -71 199 l-28 33 24 46 c67 134 54 412 -29 594 -14 29
-27 53 -29 53 -5 0 -160 -71 -165 -75 -2 -2 6 -21 17 -42 53 -105 74 -316 39
-395 -22 -49 -70 -78 -129 -78 l-46 0 -7 138 c-13 270 -66 405 -181 464 -52
27 -165 34 -219 13z"/>
</g>
</svg>
